<svg width="32" height="20" viewBox="0 0 32 20" fill="none" xmlns="http://www.w3.org/2000/svg">
<path d="M9.251 0.00488281C10.189 0.00488281 11.037 0.0828828 11.814 0.254883C12.58 0.426883 13.241 0.692883 13.793 1.06788C14.34 1.44288 14.767 1.93288 15.074 2.56288C15.371 3.18788 15.527 3.96388 15.527 4.86988C15.527 5.85388 15.298 6.68288 14.85 7.34888C14.397 8.01588 13.735 8.54688 12.845 8.97388C14.053 9.32288 14.949 9.93188 15.543 10.8019C16.142 11.6819 16.428 12.7339 16.428 13.9479C16.428 14.9479 16.256 15.8019 15.881 16.5209C15.5209 17.2393 14.9897 17.8582 14.334 18.3229C13.693 18.7869 12.933 19.1199 12.11 19.3439C11.2795 19.5681 10.4232 19.682 9.563 19.6829H0V0.0158825H9.25L9.251 0.00488281ZM22.59 16.2189C23.173 16.7919 24.017 17.0779 25.116 17.0779C25.902 17.0779 26.58 16.8799 27.152 16.4789C27.72 16.0939 28.058 15.6659 28.194 15.2289H31.642C31.106 16.9319 30.246 18.1609 29.111 18.8959C27.976 19.6409 26.601 19.9999 25.007 19.9999C23.887 19.9999 22.892 19.8279 21.976 19.4689C21.1135 19.1288 20.3324 18.6105 19.684 17.9479C19.064 17.2969 18.585 16.5099 18.246 15.5889C17.907 14.6679 17.746 13.6569 17.746 12.5629C17.746 11.4899 17.928 10.5109 18.288 9.58888C18.6229 8.70357 19.1292 7.89307 19.778 7.20388C20.439 6.52188 21.195 6.01088 22.096 5.60988C22.992 5.20888 23.961 5.03188 25.054 5.03188C26.268 5.03188 27.309 5.25088 28.226 5.72988C29.0973 6.17343 29.8549 6.81157 30.44 7.59488C31.029 8.37588 31.44 9.27688 31.695 10.2929C31.95 11.2929 32.028 12.3449 31.976 13.4649H21.721C21.721 14.5849 22.096 15.6419 22.669 16.2149L22.56 16.2569L22.59 16.2189ZM8.933 16.2859C9.355 16.2859 9.761 16.2439 10.141 16.1609C10.5012 16.0901 10.8456 15.9543 11.157 15.7599C11.438 15.5829 11.678 15.3219 11.855 14.9839C12.027 14.6659 12.105 14.2239 12.105 13.7029C12.105 12.7029 11.813 11.9839 11.251 11.5469C10.678 11.1199 9.933 10.9059 9.001 10.9059H4.319V16.3069H8.934V16.2649L8.933 16.2859ZM27.079 8.75488C26.605 8.23888 25.824 7.96288 24.865 7.96288C24.245 7.96288 23.73 8.06188 23.313 8.28088C22.9299 8.46795 22.5921 8.73615 22.323 9.06688C22.0833 9.36144 21.9061 9.70167 21.802 10.0669C21.7091 10.3756 21.6497 10.6934 21.625 11.0149H27.974C27.88 10.0149 27.531 9.28088 27.068 8.75988V8.77588L27.079 8.75488ZM8.694 7.93188C9.46 7.93188 10.095 7.75488 10.595 7.38488C11.095 7.02588 11.335 6.42088 11.335 5.59888C11.335 5.14088 11.241 4.76588 11.095 4.47388C10.9329 4.19458 10.7036 3.96016 10.428 3.79188C10.1303 3.6195 9.80359 3.50292 9.464 3.44788C9.09484 3.37805 8.71968 3.34488 8.344 3.34888H4.308V7.93188H8.694ZM20.824 1.32288H28.782V3.25988H20.824V1.30688V1.32288Z" fill="#CD9E6F"/>
</svg>
