<svg width="13" height="20" viewBox="0 0 13 20" fill="none" xmlns="http://www.w3.org/2000/svg">
<path d="M0.87868 0.87868C1.44129 0.316071 2.20435 0 3 0H10C10.7956 0 11.5587 0.316071 12.1213 0.87868C12.6839 1.44129 13 2.20435 13 3C13 3.79565 12.6839 4.55871 12.1213 5.12132C11.5587 5.68393 10.7956 6 10 6H3C2.20435 6 1.44129 5.68393 0.87868 5.12132C0.316071 4.55871 9.85263e-08 3.79565 9.85263e-08 3C9.85263e-08 2.20435 0.316071 1.44129 0.87868 0.87868Z" fill="#CD9E6F"/>
<path d="M7.87868 7.87868C8.44129 7.31607 9.20435 7 10 7C10.7956 7 11.5587 7.31607 12.1213 7.87868C12.6839 8.44129 13 9.20435 13 10C13 10.7956 12.6839 11.5587 12.1213 12.1213C11.5587 12.6839 10.7956 13 10 13C9.20435 13 8.44129 12.6839 7.87868 12.1213C7.31607 11.5587 7 10.7956 7 10C7 9.20435 7.31607 8.44129 7.87868 7.87868Z" fill="#CD9E6F"/>
<path d="M9.85263e-08 10C9.85263e-08 9.20435 0.316071 8.44129 0.87868 7.87868C1.44129 7.31607 2.20435 7 3 7H6V13H3C2.20435 13 1.44129 12.6839 0.87868 12.1213C0.316071 11.5587 9.85263e-08 10.7956 9.85263e-08 10Z" fill="#CD9E6F"/>
<path d="M1.33329 14.5056C1.82664 14.1759 2.40666 14 3 14H6V17C6 17.5933 5.82405 18.1734 5.49441 18.6667C5.16477 19.1601 4.69623 19.5446 4.14805 19.7716C3.59987 19.9987 2.99667 20.0581 2.41473 19.9424C1.83279 19.8266 1.29824 19.5409 0.878681 19.1213C0.459123 18.7018 0.173401 18.1672 0.0576454 17.5853C-0.0581101 17.0033 0.00129996 16.4001 0.228363 15.8519C0.455426 15.3038 0.839943 14.8352 1.33329 14.5056Z" fill="#CD9E6F"/>
</svg>
