<svg width="22" height="22" viewBox="0 0 22 22" fill="none" xmlns="http://www.w3.org/2000/svg">
<path d="M10.6854 7.17353C8.75731 7.17353 7.18387 8.74219 7.18387 10.6644C7.18387 12.5866 8.75731 14.1552 10.6854 14.1552C12.6134 14.1552 14.1869 12.5866 14.1869 10.6644C14.1869 8.74219 12.6134 7.17353 10.6854 7.17353ZM21.1872 10.6644C21.1872 9.21881 21.2004 7.78633 21.1189 6.34338C21.0375 4.66735 20.654 3.17987 19.4247 1.95428C18.1927 0.726064 16.7033 0.346339 15.0222 0.265157C13.5722 0.183974 12.1353 0.197068 10.688 0.197068C9.23801 0.197068 7.80116 0.183974 6.35381 0.265157C4.67267 0.346339 3.18066 0.728683 1.95132 1.95428C0.719364 3.18249 0.338481 4.66735 0.257051 6.34338C0.17562 7.78895 0.188754 9.22143 0.188754 10.6644C0.188754 12.1073 0.17562 13.5424 0.257051 14.9854C0.338481 16.6614 0.721991 18.1489 1.95132 19.3745C3.18328 20.6027 4.67267 20.9824 6.35381 21.0636C7.80379 21.1448 9.24063 21.1317 10.688 21.1317C12.138 21.1317 13.5748 21.1448 15.0222 21.0636C16.7033 20.9824 18.1953 20.6001 19.4247 19.3745C20.6566 18.1463 21.0375 16.6614 21.1189 14.9854C21.203 13.5424 21.1872 12.11 21.1872 10.6644ZM10.6854 16.0355C7.70397 16.0355 5.29784 13.6367 5.29784 10.6644C5.29784 7.69205 7.70397 5.29324 10.6854 5.29324C13.6668 5.29324 16.0729 7.69205 16.0729 10.6644C16.0729 13.6367 13.6668 16.0355 10.6854 16.0355ZM16.2935 6.32766C15.5974 6.32766 15.0353 5.76724 15.0353 5.07326C15.0353 4.37928 15.5974 3.81886 16.2935 3.81886C16.9896 3.81886 17.5518 4.37928 17.5518 5.07326C17.552 5.23805 17.5196 5.40126 17.4564 5.55354C17.3933 5.70583 17.3006 5.8442 17.1837 5.96072C17.0668 6.07724 16.928 6.16963 16.7753 6.2326C16.6225 6.29557 16.4588 6.32787 16.2935 6.32766Z" fill="#CD9E6F"/>
</svg>
