<svg width="23" height="23" viewBox="0 0 23 23" fill="none" xmlns="http://www.w3.org/2000/svg">
<path d="M4.66393 0C2.20799 0 0.197937 2.0039 0.197937 4.45243V18.2691C0.197937 20.7176 2.20794 22.7208 4.66393 22.7208H18.5227C20.9787 22.7208 22.988 20.7176 22.988 18.2691V4.45243C22.988 2.00394 20.9787 0 18.5227 0H4.66393ZM5.7872 3.74939C6.96477 3.74939 7.69011 4.5201 7.7125 5.53318C7.7125 6.5239 6.96473 7.31627 5.76442 7.31627H5.74233C4.58717 7.31627 3.84053 6.52395 3.84053 5.53318C3.84053 4.52012 4.60976 3.74939 5.78718 3.74939H5.7872ZM15.935 8.48442C18.1997 8.48442 19.8974 9.96015 19.8974 13.1314V19.0516H16.4557V13.5283C16.4557 12.1404 15.9576 11.1935 14.7121 11.1935C13.7612 11.1935 13.1944 11.8317 12.9456 12.4483C12.8547 12.6688 12.8324 12.9769 12.8324 13.2855V19.0516H9.39062C9.39062 19.0516 9.43579 9.69534 9.39062 8.72655H12.8331V10.1887C13.2904 9.48517 14.1085 8.4844 15.935 8.4844V8.48442ZM4.04355 8.7273H7.48527V19.0516H4.04355V8.7273Z" fill="#CD9E6F"/>
</svg>
