<svg width="26" height="22" viewBox="0 0 26 22" fill="none" xmlns="http://www.w3.org/2000/svg">
<path d="M25.8492 2.68276C24.8987 3.09157 23.8642 3.38579 22.7987 3.50039C23.9049 2.84516 24.7334 1.81 25.1285 0.589141C24.0904 1.2048 22.9532 1.63652 21.7673 1.86513C21.2716 1.33686 20.6722 0.916005 20.0062 0.628807C19.3403 0.341608 18.6222 0.194216 17.8966 0.195814C14.9609 0.195814 12.6 2.56817 12.6 5.47941C12.6 5.88822 12.6497 6.29704 12.7305 6.69036C8.33476 6.46118 4.41435 4.36756 1.80799 1.1621C1.33308 1.97079 1.08421 2.89158 1.08728 3.82867C1.08728 5.66214 2.02234 7.27881 3.44822 8.22961C2.60793 8.19661 1.78731 7.96635 1.05311 7.55754V7.62258C1.05311 10.1901 2.87352 12.3177 5.2997 12.8071C4.84416 12.925 4.37554 12.9854 3.90488 12.9867C3.56006 12.9867 3.23387 12.9526 2.90458 12.9062C3.57559 14.9998 5.52958 16.5205 7.85636 16.57C6.03594 17.9916 3.75577 18.8278 1.27988 18.8278C0.835651 18.8278 0.425591 18.8123 0 18.7627C2.34852 20.2648 5.13506 21.132 8.13594 21.132C17.8779 21.132 23.2087 13.0858 23.2087 6.10192C23.2087 5.87274 23.2087 5.64356 23.1932 5.41437C24.2245 4.66179 25.1285 3.72957 25.8492 2.68276Z" fill="#45464B"/>
</svg>
