<svg width="196" height="196" viewBox="0 0 196 196" fill="none" xmlns="http://www.w3.org/2000/svg">
<path fill-rule="evenodd" clip-rule="evenodd" d="M62.4227 77.7741C62.4227 60.7952 76.2276 47.031 93.2065 47.031C110.185 47.031 123.99 60.7952 123.99 77.7741C123.99 81.1855 123.433 84.4672 122.405 87.5335C120.967 87.3276 119.498 87.2211 118.005 87.2211C108.096 87.2211 99.2678 91.909 93.6341 99.188C88.0003 91.909 79.1725 87.2211 69.2635 87.2211C67.4874 87.2211 65.7459 87.3717 64.0514 87.6609C62.9955 84.5581 62.4227 81.2328 62.4227 77.7741ZM88.8064 108.205C89.9093 104.916 91.554 101.876 93.6341 99.188C95.6873 101.841 97.3162 104.838 98.4187 108.077C96.7241 108.367 94.9827 108.517 93.2065 108.517C91.7128 108.517 90.2437 108.411 88.8064 108.205ZM88.8064 108.205C87.7781 111.271 87.2208 114.553 87.2208 117.964C87.2208 125.034 89.6144 131.547 93.6341 136.74C88.0003 144.019 79.1725 148.707 69.2635 148.707C52.2846 148.707 38.4797 134.943 38.4797 117.964C38.4797 102.761 49.5474 90.136 64.0514 87.6609C67.7227 98.4496 77.2337 106.547 88.8064 108.205ZM93.6341 136.74C99.2678 144.019 108.096 148.707 118.005 148.707C134.984 148.707 148.788 134.943 148.788 117.964C148.788 102.479 137.306 89.6677 122.405 87.5335C118.85 98.1319 109.668 106.158 98.4187 108.077C99.4745 111.18 100.047 114.505 100.047 117.964C100.047 125.034 97.6537 131.547 93.6341 136.74Z" fill="white"/>
</svg>
