<svg width="356" height="266" viewBox="0 0 356 266" fill="none" xmlns="http://www.w3.org/2000/svg">
<rect width="355.23" height="264.357" transform="translate(0.68457 0.65625)" fill="#E2E2E2"/>
<path d="M100.345 128.552H102.592C102.438 127.318 102.064 126.228 101.469 125.28C100.896 124.333 100.169 123.54 99.2879 122.901C98.4288 122.24 97.4595 121.745 96.38 121.414C95.3226 121.084 94.2321 120.918 93.1086 120.918C91.2581 120.918 89.6279 121.26 88.218 121.943C86.8301 122.604 85.6735 123.507 84.7483 124.652C83.823 125.776 83.1291 127.076 82.6665 128.552C82.2039 130.028 81.9725 131.581 81.9725 133.211C81.9725 134.841 82.2039 136.394 82.6665 137.87C83.1291 139.346 83.823 140.646 84.7483 141.77C85.6735 142.893 86.8301 143.796 88.218 144.479C89.6279 145.14 91.2581 145.471 93.1086 145.471C94.4965 145.471 95.7521 145.25 96.8757 144.81C98.0212 144.369 99.0125 143.741 99.8497 142.926C100.687 142.111 101.37 141.12 101.898 139.952C102.427 138.785 102.769 137.474 102.923 136.02H100.676C100.566 137.077 100.312 138.069 99.9158 138.994C99.5192 139.897 99.0015 140.69 98.3627 141.373C97.7238 142.056 96.9638 142.596 96.0826 142.992C95.2014 143.389 94.2101 143.587 93.1086 143.587C91.5445 143.587 90.2006 143.29 89.0771 142.695C87.9536 142.1 87.0284 141.318 86.3014 140.349C85.5964 139.357 85.0677 138.245 84.7152 137.011C84.3848 135.755 84.2196 134.489 84.2196 133.211C84.2196 131.911 84.3848 130.645 84.7152 129.411C85.0677 128.177 85.5964 127.076 86.3014 126.106C87.0284 125.115 87.9536 124.322 89.0771 123.727C90.2006 123.132 91.5445 122.835 93.1086 122.835C93.9677 122.835 94.7828 122.967 95.5539 123.232C96.3469 123.474 97.0629 123.837 97.7018 124.322C98.3627 124.807 98.9134 125.413 99.354 126.139C99.8166 126.844 100.147 127.649 100.345 128.552ZM113.157 129.213C114.148 129.213 115.018 129.422 115.767 129.84C116.516 130.259 117.133 130.81 117.618 131.493C118.125 132.176 118.499 132.958 118.741 133.839C119.006 134.698 119.138 135.579 119.138 136.482C119.138 137.386 119.006 138.278 118.741 139.159C118.499 140.018 118.125 140.789 117.618 141.472C117.133 142.155 116.516 142.706 115.767 143.124C115.018 143.543 114.148 143.752 113.157 143.752C112.165 143.752 111.295 143.543 110.546 143.124C109.797 142.706 109.169 142.155 108.663 141.472C108.178 140.789 107.804 140.018 107.539 139.159C107.297 138.278 107.176 137.386 107.176 136.482C107.176 135.579 107.297 134.698 107.539 133.839C107.804 132.958 108.178 132.176 108.663 131.493C109.169 130.81 109.797 130.259 110.546 129.84C111.295 129.422 112.165 129.213 113.157 129.213ZM113.157 127.461C111.857 127.461 110.7 127.704 109.687 128.188C108.696 128.673 107.859 129.323 107.176 130.138C106.493 130.953 105.975 131.911 105.623 133.013C105.27 134.092 105.094 135.249 105.094 136.482C105.094 137.716 105.27 138.884 105.623 139.985C105.975 141.065 106.493 142.012 107.176 142.827C107.859 143.642 108.696 144.292 109.687 144.777C110.7 145.239 111.857 145.471 113.157 145.471C114.457 145.471 115.602 145.239 116.593 144.777C117.607 144.292 118.455 143.642 119.138 142.827C119.821 142.012 120.338 141.065 120.691 139.985C121.043 138.884 121.22 137.716 121.22 136.482C121.22 135.249 121.043 134.092 120.691 133.013C120.338 131.911 119.821 130.953 119.138 130.138C118.455 129.323 117.607 128.673 116.593 128.188C115.602 127.704 114.457 127.461 113.157 127.461ZM124.302 127.957V145.008H126.383V135.491C126.383 134.588 126.483 133.762 126.681 133.013C126.879 132.242 127.176 131.581 127.573 131.03C127.992 130.457 128.52 130.017 129.159 129.708C129.82 129.378 130.591 129.213 131.472 129.213C132.133 129.213 132.695 129.323 133.158 129.543C133.62 129.763 133.984 130.072 134.248 130.468C134.534 130.843 134.733 131.294 134.843 131.823C134.975 132.33 135.041 132.87 135.041 133.442V145.008H137.123V135.359C137.123 134.566 137.189 133.806 137.321 133.079C137.475 132.33 137.729 131.669 138.081 131.096C138.434 130.523 138.907 130.072 139.502 129.741C140.097 129.389 140.846 129.213 141.749 129.213C143.247 129.213 144.294 129.587 144.888 130.336C145.483 131.063 145.781 132.132 145.781 133.541V145.008H147.862V133.442C147.862 129.455 145.979 127.461 142.212 127.461C141.088 127.461 140.031 127.737 139.039 128.287C138.048 128.838 137.299 129.675 136.792 130.799C136.484 129.675 135.867 128.838 134.942 128.287C134.039 127.737 133.025 127.461 131.902 127.461C130.514 127.461 129.368 127.759 128.465 128.353C127.584 128.948 126.868 129.774 126.317 130.832H126.218V127.957H124.302ZM151.848 121.414V124.752H153.93V121.414H151.848ZM151.848 127.957V145.008H153.93V127.957H151.848ZM157.868 127.957V145.008H159.949V135.062C159.971 134.224 160.104 133.453 160.346 132.748C160.61 132.021 160.963 131.405 161.403 130.898C161.866 130.369 162.417 129.962 163.056 129.675C163.716 129.367 164.465 129.213 165.303 129.213C166.14 129.213 166.834 129.345 167.384 129.609C167.957 129.874 168.409 130.237 168.739 130.7C169.07 131.162 169.301 131.713 169.433 132.352C169.565 132.969 169.631 133.641 169.631 134.368V145.008H171.713V134.037C171.713 133.024 171.614 132.11 171.416 131.294C171.218 130.479 170.876 129.796 170.391 129.246C169.907 128.673 169.257 128.232 168.442 127.924C167.649 127.615 166.657 127.461 165.468 127.461C164.256 127.461 163.144 127.781 162.13 128.42C161.117 129.036 160.412 129.863 160.015 130.898H159.949V127.957H157.868ZM190.043 143.62V127.957H187.962V130.898H187.896C187.697 130.435 187.411 129.995 187.036 129.576C186.684 129.158 186.276 128.794 185.814 128.486C185.351 128.155 184.833 127.902 184.261 127.726C183.71 127.549 183.115 127.461 182.476 127.461C181.243 127.461 180.141 127.693 179.172 128.155C178.224 128.596 177.42 129.213 176.759 130.006C176.121 130.777 175.625 131.691 175.272 132.748C174.942 133.784 174.777 134.885 174.777 136.053C174.777 137.265 174.92 138.41 175.206 139.49C175.493 140.547 175.944 141.472 176.561 142.265C177.2 143.058 178.004 143.686 178.973 144.149C179.943 144.589 181.11 144.81 182.476 144.81C183.732 144.81 184.822 144.49 185.748 143.851C186.695 143.213 187.411 142.364 187.896 141.307H187.962V143.62C187.962 145.691 187.532 147.277 186.673 148.379C185.814 149.48 184.415 150.031 182.476 150.031C181.903 150.031 181.342 149.965 180.791 149.832C180.24 149.722 179.734 149.535 179.271 149.271C178.83 149.006 178.445 148.654 178.114 148.213C177.806 147.795 177.597 147.266 177.486 146.627H175.405C175.471 147.53 175.713 148.301 176.132 148.94C176.572 149.601 177.112 150.141 177.751 150.559C178.412 150.978 179.15 151.286 179.965 151.485C180.78 151.683 181.617 151.782 182.476 151.782C183.864 151.782 185.032 151.595 185.979 151.22C186.948 150.846 187.73 150.306 188.325 149.601C188.92 148.896 189.349 148.037 189.614 147.024C189.9 146.01 190.043 144.876 190.043 143.62ZM182.476 143.058C181.507 143.058 180.67 142.871 179.965 142.497C179.26 142.1 178.676 141.593 178.213 140.977C177.751 140.338 177.409 139.611 177.189 138.796C176.969 137.98 176.859 137.143 176.859 136.284C176.859 135.403 176.958 134.544 177.156 133.707C177.376 132.848 177.718 132.088 178.18 131.427C178.643 130.766 179.227 130.237 179.932 129.84C180.637 129.422 181.485 129.213 182.476 129.213C183.468 129.213 184.305 129.422 184.988 129.84C185.693 130.259 186.265 130.81 186.706 131.493C187.147 132.176 187.466 132.936 187.664 133.773C187.862 134.61 187.962 135.447 187.962 136.284C187.962 137.143 187.84 137.98 187.598 138.796C187.378 139.611 187.036 140.338 186.574 140.977C186.111 141.593 185.538 142.1 184.855 142.497C184.172 142.871 183.379 143.058 182.476 143.058ZM204.622 137.242H202.375C202.309 138.696 202.496 139.941 202.937 140.977C203.4 142.012 204.049 142.86 204.887 143.521C205.724 144.182 206.737 144.678 207.927 145.008C209.116 145.316 210.405 145.471 211.793 145.471C213.181 145.471 214.37 145.338 215.362 145.074C216.353 144.832 217.179 144.512 217.84 144.116C218.523 143.697 219.052 143.235 219.426 142.728C219.823 142.221 220.12 141.726 220.318 141.241C220.539 140.734 220.671 140.261 220.715 139.82C220.781 139.379 220.814 139.027 220.814 138.763C220.814 137.793 220.649 136.967 220.318 136.284C220.01 135.601 219.569 135.028 218.997 134.566C218.446 134.081 217.796 133.685 217.047 133.376C216.32 133.046 215.538 132.77 214.701 132.55L208.951 131.129C208.466 131.019 208.004 130.876 207.563 130.7C207.145 130.523 206.77 130.292 206.44 130.006C206.109 129.719 205.845 129.378 205.647 128.981C205.47 128.563 205.382 128.078 205.382 127.527C205.382 126.646 205.547 125.908 205.878 125.313C206.208 124.719 206.638 124.245 207.167 123.892C207.717 123.518 208.345 123.254 209.05 123.099C209.777 122.923 210.526 122.835 211.297 122.835C212.134 122.835 212.927 122.956 213.676 123.199C214.447 123.419 215.119 123.76 215.692 124.223C216.287 124.663 216.761 125.225 217.113 125.908C217.488 126.569 217.697 127.351 217.741 128.254H219.988C219.988 127.043 219.746 125.985 219.261 125.082C218.798 124.157 218.17 123.386 217.377 122.769C216.584 122.152 215.659 121.689 214.602 121.381C213.544 121.073 212.432 120.918 211.264 120.918C209.612 120.918 208.257 121.161 207.2 121.645C206.142 122.108 205.305 122.681 204.688 123.364C204.093 124.047 203.686 124.774 203.466 125.545C203.245 126.316 203.135 126.988 203.135 127.56C203.135 128.486 203.278 129.268 203.565 129.907C203.873 130.545 204.27 131.085 204.754 131.526C205.239 131.966 205.801 132.319 206.44 132.583C207.101 132.848 207.772 133.068 208.455 133.244L213.709 134.533C214.26 134.665 214.822 134.841 215.395 135.062C215.968 135.26 216.485 135.524 216.948 135.855C217.432 136.185 217.818 136.593 218.104 137.077C218.413 137.562 218.567 138.135 218.567 138.796C218.567 139.655 218.358 140.393 217.939 141.01C217.521 141.604 216.992 142.1 216.353 142.497C215.736 142.871 215.064 143.146 214.337 143.323C213.61 143.499 212.938 143.587 212.322 143.587C211.242 143.587 210.229 143.488 209.281 143.29C208.334 143.069 207.508 142.717 206.803 142.232C206.12 141.748 205.58 141.098 205.184 140.283C204.787 139.467 204.6 138.454 204.622 137.242ZM231.173 129.213C232.164 129.213 233.034 129.422 233.784 129.84C234.533 130.259 235.149 130.81 235.634 131.493C236.141 132.176 236.515 132.958 236.758 133.839C237.022 134.698 237.154 135.579 237.154 136.482C237.154 137.386 237.022 138.278 236.758 139.159C236.515 140.018 236.141 140.789 235.634 141.472C235.149 142.155 234.533 142.706 233.784 143.124C233.034 143.543 232.164 143.752 231.173 143.752C230.182 143.752 229.311 143.543 228.562 143.124C227.813 142.706 227.186 142.155 226.679 141.472C226.194 140.789 225.82 140.018 225.555 139.159C225.313 138.278 225.192 137.386 225.192 136.482C225.192 135.579 225.313 134.698 225.555 133.839C225.82 132.958 226.194 132.176 226.679 131.493C227.186 130.81 227.813 130.259 228.562 129.84C229.311 129.422 230.182 129.213 231.173 129.213ZM231.173 127.461C229.873 127.461 228.717 127.704 227.703 128.188C226.712 128.673 225.875 129.323 225.192 130.138C224.509 130.953 223.991 131.911 223.639 133.013C223.286 134.092 223.11 135.249 223.11 136.482C223.11 137.716 223.286 138.884 223.639 139.985C223.991 141.065 224.509 142.012 225.192 142.827C225.875 143.642 226.712 144.292 227.703 144.777C228.717 145.239 229.873 145.471 231.173 145.471C232.473 145.471 233.618 145.239 234.61 144.777C235.623 144.292 236.471 143.642 237.154 142.827C237.837 142.012 238.355 141.065 238.707 139.985C239.06 138.884 239.236 137.716 239.236 136.482C239.236 135.249 239.06 134.092 238.707 133.013C238.355 131.911 237.837 130.953 237.154 130.138C236.471 129.323 235.623 128.673 234.61 128.188C233.618 127.704 232.473 127.461 231.173 127.461ZM249.521 129.213C250.513 129.213 251.383 129.422 252.132 129.84C252.881 130.259 253.498 130.81 253.982 131.493C254.489 132.176 254.864 132.958 255.106 133.839C255.37 134.698 255.503 135.579 255.503 136.482C255.503 137.386 255.37 138.278 255.106 139.159C254.864 140.018 254.489 140.789 253.982 141.472C253.498 142.155 252.881 142.706 252.132 143.124C251.383 143.543 250.513 143.752 249.521 143.752C248.53 143.752 247.66 143.543 246.911 143.124C246.162 142.706 245.534 142.155 245.027 141.472C244.543 140.789 244.168 140.018 243.904 139.159C243.662 138.278 243.54 137.386 243.54 136.482C243.54 135.579 243.662 134.698 243.904 133.839C244.168 132.958 244.543 132.176 245.027 131.493C245.534 130.81 246.162 130.259 246.911 129.84C247.66 129.422 248.53 129.213 249.521 129.213ZM249.521 127.461C248.222 127.461 247.065 127.704 246.052 128.188C245.06 128.673 244.223 129.323 243.54 130.138C242.857 130.953 242.34 131.911 241.987 133.013C241.635 134.092 241.459 135.249 241.459 136.482C241.459 137.716 241.635 138.884 241.987 139.985C242.34 141.065 242.857 142.012 243.54 142.827C244.223 143.642 245.06 144.292 246.052 144.777C247.065 145.239 248.222 145.471 249.521 145.471C250.821 145.471 251.967 145.239 252.958 144.777C253.971 144.292 254.82 143.642 255.503 142.827C256.185 142.012 256.703 141.065 257.056 139.985C257.408 138.884 257.584 137.716 257.584 136.482C257.584 135.249 257.408 134.092 257.056 133.013C256.703 131.911 256.185 130.953 255.503 130.138C254.82 129.323 253.971 128.673 252.958 128.188C251.967 127.704 250.821 127.461 249.521 127.461ZM260.633 127.957V145.008H262.715V135.062C262.737 134.224 262.869 133.453 263.112 132.748C263.376 132.021 263.728 131.405 264.169 130.898C264.632 130.369 265.182 129.962 265.821 129.675C266.482 129.367 267.231 129.213 268.068 129.213C268.905 129.213 269.599 129.345 270.15 129.609C270.723 129.874 271.174 130.237 271.505 130.7C271.835 131.162 272.067 131.713 272.199 132.352C272.331 132.969 272.397 133.641 272.397 134.368V145.008H274.479V134.037C274.479 133.024 274.38 132.11 274.181 131.294C273.983 130.479 273.642 129.796 273.157 129.246C272.672 128.673 272.023 128.232 271.207 127.924C270.414 127.615 269.423 127.461 268.233 127.461C267.022 127.461 265.909 127.781 264.896 128.42C263.883 129.036 263.178 129.863 262.781 130.898H262.715V127.957H260.633Z" fill="#AC7339"/>
</svg>
