<svg width="422" height="315" viewBox="0 0 422 315" fill="none" xmlns="http://www.w3.org/2000/svg">
<path d="M171.246 281.557V295.402H180.321V294.277H172.565V281.557H171.246ZM188.614 289.701H182.138C182.19 289.249 182.293 288.809 182.448 288.383C182.616 287.943 182.836 287.562 183.107 287.239C183.379 286.903 183.709 286.638 184.096 286.444C184.484 286.237 184.93 286.134 185.434 286.134C185.926 286.134 186.365 286.237 186.753 286.444C187.141 286.638 187.47 286.903 187.742 287.239C188.013 287.562 188.22 287.937 188.362 288.363C188.517 288.79 188.601 289.236 188.614 289.701ZM182.138 290.729H189.836C189.862 290.031 189.797 289.346 189.642 288.674C189.487 287.989 189.228 287.387 188.866 286.87C188.517 286.34 188.058 285.914 187.49 285.591C186.921 285.267 186.236 285.106 185.434 285.106C184.646 285.106 183.961 285.261 183.379 285.571C182.81 285.868 182.345 286.269 181.983 286.773C181.621 287.265 181.349 287.827 181.168 288.46C181 289.094 180.916 289.74 180.916 290.399C180.916 291.11 181 291.789 181.168 292.435C181.349 293.069 181.621 293.631 181.983 294.122C182.345 294.601 182.81 294.982 183.379 295.266C183.961 295.538 184.646 295.674 185.434 295.674C186.701 295.674 187.677 295.363 188.362 294.743C189.06 294.122 189.539 293.243 189.797 292.106H188.576C188.382 292.881 188.033 293.502 187.528 293.967C187.024 294.433 186.326 294.665 185.434 294.665C184.853 294.665 184.355 294.542 183.941 294.297C183.528 294.051 183.185 293.741 182.914 293.366C182.642 292.991 182.442 292.571 182.312 292.106C182.196 291.627 182.138 291.169 182.138 290.729ZM191.351 288.46H192.573C192.599 287.646 192.857 287.058 193.349 286.696C193.84 286.321 194.473 286.134 195.249 286.134C195.611 286.134 195.947 286.166 196.257 286.23C196.58 286.282 196.858 286.386 197.091 286.541C197.337 286.696 197.524 286.909 197.653 287.181C197.795 287.439 197.867 287.775 197.867 288.189C197.867 288.46 197.828 288.68 197.75 288.848C197.686 289.016 197.589 289.152 197.459 289.255C197.33 289.346 197.169 289.41 196.975 289.449C196.781 289.488 196.554 289.52 196.296 289.546C195.637 289.624 194.984 289.708 194.338 289.798C193.704 289.876 193.129 290.018 192.612 290.225C192.108 290.432 191.7 290.735 191.39 291.136C191.08 291.524 190.925 292.067 190.925 292.765C190.925 293.269 191.009 293.709 191.177 294.084C191.358 294.446 191.597 294.749 191.894 294.995C192.205 295.228 192.56 295.396 192.961 295.499C193.374 295.615 193.814 295.674 194.279 295.674C194.771 295.674 195.191 295.628 195.54 295.538C195.902 295.447 196.218 295.318 196.49 295.15C196.774 294.982 197.026 294.775 197.246 294.53C197.479 294.271 197.705 293.98 197.925 293.657H197.964C197.964 293.916 197.976 294.155 198.002 294.374C198.041 294.581 198.112 294.762 198.216 294.917C198.319 295.072 198.461 295.195 198.642 295.286C198.836 295.363 199.088 295.402 199.398 295.402C199.566 295.402 199.702 295.396 199.806 295.383C199.922 295.37 200.051 295.35 200.193 295.325V294.297C200.077 294.349 199.948 294.374 199.806 294.374C199.327 294.374 199.088 294.129 199.088 293.638V288.325C199.088 287.652 198.978 287.109 198.759 286.696C198.539 286.269 198.254 285.94 197.905 285.707C197.556 285.474 197.162 285.319 196.723 285.242C196.283 285.151 195.843 285.106 195.404 285.106C194.822 285.106 194.292 285.17 193.814 285.3C193.336 285.429 192.916 285.629 192.554 285.901C192.205 286.172 191.927 286.521 191.72 286.948C191.513 287.374 191.39 287.879 191.351 288.46ZM197.867 289.934V291.524C197.867 292.015 197.77 292.455 197.576 292.843C197.395 293.23 197.143 293.56 196.819 293.831C196.509 294.103 196.141 294.31 195.714 294.452C195.288 294.594 194.842 294.665 194.376 294.665C194.092 294.665 193.814 294.62 193.543 294.53C193.271 294.439 193.032 294.31 192.825 294.142C192.618 293.961 192.45 293.754 192.321 293.521C192.205 293.276 192.146 292.998 192.146 292.687C192.146 292.196 192.289 291.821 192.573 291.563C192.87 291.291 193.245 291.085 193.698 290.942C194.15 290.8 194.648 290.697 195.191 290.632C195.747 290.555 196.283 290.47 196.8 290.38C196.968 290.354 197.162 290.309 197.382 290.244C197.602 290.18 197.75 290.076 197.828 289.934H197.867ZM201.515 285.397V295.402H202.737V290.07C202.737 289.54 202.827 289.055 203.008 288.615C203.189 288.163 203.441 287.775 203.764 287.452C204.1 287.129 204.495 286.883 204.947 286.715C205.399 286.534 205.904 286.457 206.459 286.483V285.261C205.555 285.222 204.773 285.423 204.113 285.862C203.467 286.302 202.989 286.929 202.678 287.743H202.64V285.397H201.515ZM207.945 285.397V295.402H209.167V289.566C209.179 289.074 209.257 288.622 209.399 288.208C209.554 287.782 209.761 287.42 210.02 287.122C210.291 286.812 210.614 286.573 210.989 286.405C211.377 286.224 211.817 286.134 212.308 286.134C212.799 286.134 213.206 286.211 213.529 286.366C213.865 286.521 214.13 286.735 214.324 287.006C214.518 287.278 214.654 287.601 214.732 287.976C214.809 288.338 214.848 288.732 214.848 289.158V295.402H216.07V288.964C216.07 288.37 216.011 287.833 215.895 287.355C215.779 286.877 215.578 286.476 215.294 286.153C215.01 285.817 214.628 285.558 214.15 285.377C213.684 285.196 213.103 285.106 212.405 285.106C211.694 285.106 211.041 285.293 210.446 285.668C209.852 286.03 209.438 286.515 209.205 287.122H209.167V285.397H207.945ZM218.604 281.557V295.402H219.923V288.693H228.144V295.402H229.463V281.557H228.144V287.568H219.923V281.557H218.604ZM240.122 295.402V285.397H238.9V290.651C238.9 291.156 238.842 291.653 238.725 292.145C238.609 292.623 238.428 293.049 238.182 293.424C237.937 293.799 237.627 294.103 237.252 294.336C236.877 294.555 236.424 294.665 235.894 294.665C234.925 294.665 234.24 294.433 233.839 293.967C233.451 293.502 233.244 292.817 233.219 291.912V285.397H231.997V291.892C231.997 292.487 232.062 293.017 232.191 293.482C232.32 293.948 232.521 294.342 232.792 294.665C233.076 294.988 233.438 295.234 233.878 295.402C234.33 295.583 234.873 295.674 235.507 295.674C236.256 295.674 236.935 295.499 237.543 295.15C238.163 294.788 238.635 294.271 238.958 293.599H238.997V295.402H240.122ZM242.423 281.557V295.402H243.548V293.502H243.587C243.871 294.2 244.33 294.736 244.963 295.111C245.61 295.486 246.34 295.674 247.155 295.674C247.917 295.674 248.577 295.538 249.132 295.266C249.701 294.982 250.173 294.601 250.548 294.122C250.923 293.631 251.201 293.069 251.382 292.435C251.563 291.789 251.653 291.11 251.653 290.399C251.653 289.688 251.563 289.016 251.382 288.383C251.201 287.736 250.923 287.174 250.548 286.696C250.173 286.205 249.701 285.817 249.132 285.532C248.577 285.248 247.917 285.106 247.155 285.106C246.793 285.106 246.431 285.151 246.069 285.242C245.707 285.332 245.371 285.474 245.06 285.668C244.75 285.849 244.472 286.075 244.227 286.347C243.994 286.618 243.813 286.935 243.684 287.297H243.645V281.557H242.423ZM250.432 290.399C250.432 290.916 250.367 291.434 250.238 291.951C250.121 292.455 249.927 292.907 249.656 293.308C249.397 293.709 249.061 294.038 248.648 294.297C248.234 294.542 247.736 294.665 247.155 294.665C246.508 294.665 245.959 294.542 245.506 294.297C245.067 294.038 244.705 293.709 244.421 293.308C244.149 292.907 243.949 292.455 243.819 291.951C243.703 291.434 243.645 290.916 243.645 290.399C243.645 289.882 243.703 289.372 243.819 288.868C243.949 288.35 244.149 287.892 244.421 287.491C244.705 287.09 245.067 286.767 245.506 286.521C245.959 286.263 246.508 286.134 247.155 286.134C247.736 286.134 248.234 286.263 248.648 286.521C249.061 286.767 249.397 287.09 249.656 287.491C249.927 287.892 250.121 288.35 250.238 288.868C250.367 289.372 250.432 289.882 250.432 290.399Z" fill="#AC7339" fill-opacity="0.01"/>
</svg>
