<svg width="45" height="67" viewBox="0 0 45 67" fill="none" xmlns="http://www.w3.org/2000/svg">
<path fill-rule="evenodd" clip-rule="evenodd" d="M36.2291 49.7675H23.9128C20.6732 46.0243 17.3099 42.2398 13.8228 38.4139C12.8263 37.3022 11.0827 35.6267 8.59198 33.3875C8.36289 33.2338 8.13526 33.0746 7.90909 32.9099C6.45454 31.8507 5.18182 30.61 4.09091 29.1877C2.99999 27.7654 2.12122 26.1917 1.45455 24.4668C0.787875 22.7419 0.454545 20.911 0.454545 18.9743C0.454545 15.7059 1.04545 12.8916 2.22727 10.5312C3.4091 8.17072 4.99999 6.20371 7 4.63008C9.00001 3.05645 11.3182 1.89138 13.9545 1.13482C16.5909 0.378271 19.3636 0 22.2727 0C25 0 27.3333 0.226963 29.2727 0.680894C31.2121 1.13483 32.803 1.63414 34.0455 2.17886C35.2879 2.72358 36.2273 3.2229 36.8636 3.67683C37.5 4.13076 37.8485 4.35772 37.9091 4.35772C38.0303 4.35772 39.2727 8.86676 41.6364 17.8848H40.6364C39.9091 15.8875 38.9697 13.9054 37.8182 11.9383C36.6667 9.97131 35.3333 8.21613 33.8182 6.67276C32.303 5.1294 30.5758 3.87354 28.6364 2.90515C26.697 1.93676 24.5455 1.45257 22.1818 1.45257C20.303 1.45257 18.5303 1.72493 16.8636 2.26965C15.197 2.81437 13.7424 3.63143 12.5 4.72087C11.2576 5.8103 10.2879 7.15695 9.59091 8.76084C8.89394 10.3647 8.54545 12.1956 8.54545 14.2534C8.54545 14.7799 8.60424 15.5375 8.72182 16.5261V33.305C9.69946 32.685 10.5482 31.8935 12.2273 30.4341C13.9809 28.91 15.8207 27.199 17.7468 25.3011C19.6728 23.4032 21.5845 21.4478 23.4818 19.4348C25.2125 17.5987 26.7278 15.9779 28.028 14.5725H30.4971C29.6389 15.3745 28.7666 16.2188 27.8802 17.1056C26.6153 18.3708 25.3648 19.6361 24.1286 20.9014C22.8925 22.1667 21.6851 23.3888 20.5065 24.5678C19.3279 25.7468 18.2498 26.8539 17.2724 27.8892C17.7324 28.4643 18.796 29.7152 20.4634 31.6418C22.1307 33.5685 24.1143 35.8259 26.4141 38.4139C28.7138 41.002 31.1717 43.7626 33.7877 46.6958C34.6115 47.6194 35.4253 48.5316 36.2291 49.4324V33.1188C38.3793 34.3856 40.1666 35.9199 41.5909 37.7215C43.8636 40.5964 45 44.1825 45 48.4797C45 51.3848 44.4091 53.9873 43.2273 56.2873C42.0454 58.5872 40.4091 60.5542 38.3182 62.1883C36.2273 63.8225 33.7273 65.033 30.8182 65.8198C27.9091 66.6066 24.7273 67 21.2727 67C18.303 67 15.7576 66.8184 13.6364 66.4553C11.5151 66.0921 9.75758 65.6533 8.36364 65.1389C6.96969 64.6244 5.92425 64.1554 5.22727 63.7317C4.5303 63.308 4.09091 63.0962 3.90909 63.0962C3.78788 63.0962 2.48485 58.1332 0 48.2073H0.909091C1.45455 49.8415 2.15151 51.4302 3 52.9736C3.84849 54.5169 4.77272 55.9695 5.77273 57.3313C6.77273 58.6931 7.83333 59.8884 8.95455 60.9173C10.0758 61.9463 11.1515 62.7331 12.1818 63.2778C13.2121 63.8225 14.5757 64.3672 16.2727 64.9119C17.9697 65.4566 19.6061 65.729 21.1818 65.729C25.6667 65.729 29.303 64.5034 32.0909 62.0522C34.8788 59.6009 36.2727 56.2873 36.2727 52.1111C36.2727 51.642 36.2518 51.1891 36.21 50.7525H36.2291V49.7675Z" fill="#CD9E6F"/>
</svg>
