<svg width="325" height="324" viewBox="0 0 325 324" fill="none" xmlns="http://www.w3.org/2000/svg">
<rect x="108.798" y="93.6218" width="30.5547" height="30.4297" rx="15.2149" fill="white"/>
<rect x="122.836" y="194.243" width="30.5547" height="30.4297" rx="15.2149" fill="white"/>
<rect x="173.725" y="194.243" width="30.5547" height="30.4297" rx="15.2149" fill="white"/>
<rect x="149.158" y="147.87" width="30.5547" height="30.4297" rx="15.2149" fill="white"/>
<rect x="187.764" y="78.7473" width="30.5547" height="30.4297" rx="15.2149" fill="white"/>
<path fill-rule="evenodd" clip-rule="evenodd" d="M93.0549 163.961C92.5513 155.228 99.4973 147.87 108.245 147.87H109.222C117.625 147.87 124.436 154.682 124.436 163.085C124.436 171.488 117.625 178.3 109.222 178.3H108.245C100.182 178.3 93.5191 172.01 93.0549 163.961Z" fill="white"/>
<path fill-rule="evenodd" clip-rule="evenodd" d="M217.815 161.179C218.466 153.65 224.768 147.87 232.325 147.87C240.368 147.87 246.889 154.39 246.889 162.434V163.682C246.889 171.755 240.344 178.3 232.271 178.3C223.701 178.3 216.969 170.96 217.708 162.422L217.815 161.179Z" fill="white"/>
</svg>
