<svg width="248" height="248" viewBox="0 0 248 248" fill="none" xmlns="http://www.w3.org/2000/svg">
<path d="M142.6 93.2601C142.812 92.7494 143.122 92.2855 143.514 91.895C143.904 91.5035 144.368 91.1929 144.879 90.9809C145.39 90.769 145.937 90.6599 146.49 90.6599C147.043 90.6599 147.591 90.769 148.101 90.9809C148.612 91.1929 149.076 91.5035 149.467 91.895L178.894 121.322C179.285 121.713 179.596 122.177 179.808 122.687C180.02 123.198 180.129 123.746 180.129 124.299C180.129 124.851 180.02 125.399 179.808 125.91C179.596 126.42 179.285 126.884 178.894 127.275L149.467 156.702C149.076 157.093 148.612 157.403 148.101 157.615C147.59 157.826 147.043 157.935 146.49 157.935C145.937 157.935 145.39 157.826 144.879 157.615C144.369 157.403 143.905 157.093 143.514 156.702C143.123 156.311 142.813 155.847 142.601 155.337C142.39 154.826 142.281 154.279 142.281 153.726C142.281 153.173 142.39 152.626 142.601 152.115C142.813 151.604 143.123 151.14 143.514 150.749L169.973 124.299L143.514 97.8477C143.122 97.4572 142.812 96.9933 142.6 96.4825C142.388 95.9718 142.279 95.4243 142.279 94.8713C142.279 94.3184 142.388 93.7708 142.6 93.2601Z" fill="#D8D8D8"/>
<path d="M103.215 93.2601C103.003 92.7494 102.692 92.2855 102.301 91.895C101.91 91.5035 101.446 91.1929 100.936 90.9809C100.425 90.769 99.8773 90.6599 99.3243 90.6599C98.7714 90.6599 98.2239 90.769 97.7131 90.9809C97.2024 91.1929 96.7385 91.5035 96.348 91.895L66.9208 121.322C66.5293 121.713 66.2187 122.177 66.0067 122.687C65.7948 123.198 65.6857 123.746 65.6857 124.299C65.6857 124.851 65.7948 125.399 66.0067 125.91C66.2187 126.42 66.5293 126.884 66.9208 127.275L96.348 156.702C97.1374 157.491 98.208 157.935 99.3243 157.935C100.441 157.935 101.511 157.491 102.301 156.702C103.09 155.913 103.534 154.842 103.534 153.726C103.534 152.609 103.09 151.539 102.301 150.749L75.8414 124.299L102.301 97.8477C102.692 97.4572 103.003 96.9933 103.215 96.4825C103.427 95.9718 103.536 95.4243 103.536 94.8713C103.536 94.3184 103.427 93.7708 103.215 93.2601Z" fill="#D8D8D8"/>
<rect x="132.242" y="67.8708" width="5.38098" height="111.924" rx="2.69049" transform="rotate(12 132.242 67.8708)" fill="#B98959"/>
</svg>
