<svg width="134" height="130" viewBox="0 0 134 130" fill="none" xmlns="http://www.w3.org/2000/svg">
<path d="M59.5783 56.2592C60.3929 59.3648 61.1292 62.1719 61.6488 64.2319H47.3394C49.8752 54.8731 53.075 42.9184 54.343 35.8541H54.4638C55.5095 40.7471 57.7426 49.2608 59.5783 56.2592Z" fill="#CD9E6F"/>
<path fill-rule="evenodd" clip-rule="evenodd" d="M133.438 129.259H0.606445V0.0527344H133.438L133.438 129.259ZM90.2077 43.6428C89.6641 43.6428 89.483 43.8845 89.483 44.3675H89.5433V91.9456C89.5433 92.4286 89.7247 92.7304 90.3284 92.7304H99.687C100.291 92.7304 100.411 92.4887 100.411 92.006V44.3675C100.411 43.8239 100.17 43.6428 99.687 43.6428H90.2077ZM94.9776 24.5031C91.5358 24.5031 88.8189 26.7974 88.8189 30.6616C88.8189 34.6465 91.3547 36.8203 94.8569 36.82C98.5399 36.82 101.136 34.6465 101.136 30.6616C101.136 26.9785 98.6607 24.5031 94.9776 24.5031ZM40.0938 92.1267L44.8637 74.0133H64.1845L69.1356 92.1871C69.2561 92.6094 69.5582 92.7302 70.0412 92.7302H80.064C80.547 92.7302 80.6677 92.4281 80.547 91.9454L61.3469 26.7974C61.2259 26.3144 61.0448 26.1937 60.6222 26.1937H47.9428C47.641 26.1937 47.4599 26.3748 47.4599 26.7974C47.3391 29.7558 47.158 30.7219 46.8562 31.8086L29.7089 91.8246C29.5879 92.549 29.7089 92.7302 30.3126 92.7302H39.1882C39.7919 92.7302 39.973 92.6094 40.0938 92.1267Z" fill="#CD9E6F"/>
</svg>
