<svg width="121" height="121" viewBox="0 0 121 121" fill="none" xmlns="http://www.w3.org/2000/svg">
<g clip-path="url(#clip0)">
<path d="M0.130127 0H120.195V120.065H0.130127V0ZM110.365 91.437C109.487 85.9441 105.907 81.3516 95.338 77.0555C91.6647 75.3371 87.56 74.1252 86.3481 71.3487C85.8978 69.7053 85.819 68.8085 86.1117 67.8292C86.8734 64.5837 90.6854 63.627 93.6946 64.5275C95.6494 65.1315 97.4466 66.6173 98.5797 69.0224C103.758 65.6418 103.758 65.6418 107.356 63.3943C106.009 61.3045 105.345 60.3852 104.425 59.5072C101.277 55.9691 97.0789 54.1718 90.2577 54.3294L86.7195 54.7797C83.339 55.6014 80.116 57.3986 78.1611 59.8036C72.4731 66.2534 74.1165 77.5095 81.0127 82.1808C87.8339 87.2798 97.818 88.3941 99.1087 93.2042C100.302 99.0687 94.7526 100.945 89.2597 100.258C85.215 99.3576 82.9675 97.3277 80.4837 93.5757L71.3362 98.8323C72.3718 101.237 73.5837 102.273 75.3809 104.382C84.0781 113.158 105.847 112.707 109.753 99.3576C109.888 98.9073 110.946 95.8194 110.125 91.1106L110.365 91.437ZM65.4192 55.1849H54.1819C54.1819 64.8764 54.1219 74.5116 54.1219 84.2256C54.1219 90.3827 54.4333 96.0483 53.439 97.7892C51.7769 101.23 47.5371 100.798 45.601 100.194C43.6274 99.2188 42.6106 97.868 41.4588 95.9132C41.1248 95.3842 40.8922 94.9377 40.8134 94.9377L31.6885 100.566C33.2118 103.714 35.4405 106.43 38.3146 108.149C42.5956 110.707 48.34 111.529 54.3583 110.182C58.2679 109.049 61.6485 106.723 63.4044 103.128C65.9633 98.4758 65.4155 92.7728 65.3967 86.3793C65.4568 76.0987 65.3967 65.8219 65.3967 55.4625L65.4192 55.1849Z" fill="#CD9E6F"/>
</g>
<defs>
<clipPath id="clip0">
<rect width="120.065" height="120.065" fill="white" transform="translate(0.130127)"/>
</clipPath>
</defs>
</svg>
