<svg width="121" height="121" viewBox="0 0 121 121" fill="none" xmlns="http://www.w3.org/2000/svg">
<g clip-path="url(#clip0)">
<path d="M57.3298 0.761739L10.4669 27.9265C9.60305 28.4242 8.88717 29.1428 8.39266 30.0085C7.89815 30.8743 7.64283 31.8559 7.65286 32.8529V87.1973C7.65286 89.2309 8.72594 91.1069 10.4669 92.1012L57.3485 119.303C58.2057 119.803 59.1799 120.066 60.1719 120.066C61.1639 120.066 62.1382 119.803 62.9953 119.303L109.858 92.12C111.599 91.1032 112.672 89.2272 112.672 87.2161V32.8491C112.672 30.8155 111.599 28.9395 109.839 27.9227L62.9991 0.757987C62.1419 0.258674 61.1677 -0.00439453 60.1757 -0.00439453C59.1837 -0.00439453 58.2094 0.258674 57.3523 0.757987L57.3298 0.761739Z" fill="#CD9E6F"/>
</g>
<defs>
<clipPath id="clip0">
<rect width="120.065" height="120.065" fill="white" transform="translate(0.130127)"/>
</clipPath>
</defs>
</svg>
