<svg width="92" height="139" viewBox="0 0 92 139" fill="none" xmlns="http://www.w3.org/2000/svg">
<path d="M69.6567 0.519043H47.6235V44.5854H69.6567C81.8186 44.5854 91.6899 34.7141 91.6899 22.5522C91.6899 10.3903 81.8186 0.519043 69.6567 0.519043Z" fill="#CD9E6F"/>
<path d="M0.519043 69.6562C0.519043 57.4944 10.3903 47.623 22.5522 47.623H44.5854V91.6894H22.5522C10.3903 91.6894 0.519043 81.8181 0.519043 69.6562Z" fill="#CD9E6F"/>
<path d="M44.5854 116.762C44.5854 128.924 34.7141 138.795 22.5522 138.795C10.3903 138.795 0.519043 128.924 0.519043 116.762C0.519043 104.6 10.3903 94.7285 22.5522 94.7285H44.5854V116.762Z" fill="#CD9E6F"/>
<path d="M0.519043 22.5522C0.519043 10.3903 10.3903 0.519043 22.5522 0.519043H44.5854V44.5854H22.5522C10.3903 44.5854 0.519043 34.7141 0.519043 22.5522Z" fill="#CD9E6F"/>
<path d="M69.6567 91.6894C81.8186 91.6894 91.6899 81.8181 91.6899 69.6562C91.6899 57.4944 81.8186 47.623 69.6567 47.623C57.4948 47.623 47.6235 57.4944 47.6235 69.6562C47.6235 81.8181 57.4948 91.6894 69.6567 91.6894Z" fill="#CD9E6F"/>
</svg>
