<svg width="102" height="140" viewBox="0 0 102 140" fill="none" xmlns="http://www.w3.org/2000/svg">
<path fill-rule="evenodd" clip-rule="evenodd" d="M0.379669 117.553V50.7686C0.379669 22.73 23.1092 0.000488281 51.1478 0.000488281C79.1864 0.000488281 101.916 22.73 101.916 50.7686C101.916 78.4381 79.7801 100.938 52.2514 101.525V101.537C44.3272 101.537 37.9039 95.1135 37.9039 87.1892C37.9039 79.3391 44.2084 72.9613 52.0307 72.8435V72.8245C63.812 72.361 73.2209 62.6634 73.2209 50.7686C73.2209 38.5781 63.3383 28.6955 51.1478 28.6955C38.9573 28.6955 29.0747 38.5781 29.0747 50.7686V124.713C29.0747 132.638 22.6514 139.061 14.7272 139.061C11.7755 139.066 8.8949 138.156 6.48156 136.456C10.6083 135.25 13.6235 131.438 13.6235 126.921C13.6235 121.435 9.17624 116.988 3.69063 116.988C2.52959 116.988 1.41534 117.187 0.379669 117.553ZM52.2514 97.1221C57.737 97.1221 62.1843 92.6748 62.1843 87.1892C62.1843 81.7036 57.737 77.2563 52.2514 77.2563C46.7658 77.2563 42.3185 81.7036 42.3185 87.1892C42.3185 92.6748 46.7658 97.1221 52.2514 97.1221Z" fill="#CD9E6F"/>
</svg>
