<svg width="43" height="77" viewBox="0 0 43 77" fill="none" xmlns="http://www.w3.org/2000/svg">
<path d="M12.3968 55.7093L20.4109 63.7234L28.425 55.7093L27.4234 54.7077L20.4109 61.7202L13.3984 54.7077L12.3968 55.7093Z" fill="#CD9E6F"/>
<path d="M21.0597 2.33994C24.1626 2.33994 27.1385 3.57259 29.3327 5.76673C31.5268 7.96086 32.7594 10.9367 32.7594 14.0397V28.0795C32.7594 31.1824 31.5268 34.1583 29.3327 36.3524C27.1385 38.5466 24.1626 39.7792 21.0597 39.7792C17.9567 39.7792 14.9808 38.5466 12.7867 36.3524C10.5925 34.1583 9.35989 31.1824 9.35989 28.0795L9.35989 14.0397C9.35989 12.5033 9.66251 10.9819 10.2505 9.56241C10.8384 8.14293 11.7002 6.85315 12.7867 5.76673C13.8731 4.6803 15.1629 3.8185 16.5824 3.23053C18.0018 2.64257 19.5232 2.33994 21.0597 2.33994ZM21.0597 37.4393C23.542 37.4393 25.9228 36.4532 27.6781 34.6979C29.4334 32.9425 30.4195 30.5618 30.4195 28.0795L30.4195 14.0397C30.4195 11.5573 29.4334 9.17663 27.6781 7.42133C25.9228 5.66602 23.542 4.6799 21.0597 4.6799C18.5773 4.6799 16.1966 5.66602 14.4413 7.42133C12.686 9.17663 11.6998 11.5573 11.6998 14.0397L11.6998 28.0795C11.6998 30.5618 12.686 32.9425 14.4413 34.6979C16.1966 36.4532 18.5773 37.4393 21.0597 37.4393Z" fill="#CD9E6F"/>
<path d="M21.0597 24.5695C21.37 24.5695 21.6676 24.6928 21.887 24.9122C22.1064 25.1316 22.2296 25.4292 22.2296 25.7395V30.4194C22.2296 30.7297 22.1064 31.0273 21.887 31.2467C21.6676 31.4661 21.37 31.5894 21.0597 31.5894C20.7494 31.5894 20.4518 31.4661 20.2324 31.2467C20.013 31.0273 19.8897 30.7297 19.8897 30.4194V25.7395C19.8897 25.4292 20.013 25.1316 20.2324 24.9122C20.4518 24.6928 20.7494 24.5695 21.0597 24.5695Z" fill="#CD9E6F"/>
</svg>
