<svg width="133" height="130" viewBox="0 0 133 130" fill="none" xmlns="http://www.w3.org/2000/svg">
<path d="M95.1884 53.9112C96.6378 53.9112 97.8437 54.1489 98.6901 54.5141H98.6959V84.4117C97.548 84.8987 95.9769 85.0784 94.5275 85.0784C87.7039 85.0784 82.2658 80.6085 82.2658 69.4948C82.2658 59.7666 87.5763 53.9112 95.1884 53.9112Z" fill="#CD9E6F"/>
<path fill-rule="evenodd" clip-rule="evenodd" d="M22.1171 129.273H111.131C123.208 129.273 133.052 119.429 132.994 107.295V21.962C132.994 9.88586 123.213 0.041748 111.074 0.041748H22.1171C10.0409 0.041748 0.196808 9.88586 0.196808 21.962V107.353C0.196808 119.429 10.0409 129.273 22.1171 129.273ZM68.3751 92.6151L51.4638 60.1261L67.4765 29.2139C67.7779 28.7327 67.5924 28.3675 67.1112 28.3675H57.3889C56.7891 28.3675 56.6058 28.6602 56.3121 29.1291L56.2989 29.1502C52.5538 37.0637 48.6869 45.3367 45.1852 53.3082H45.0634C41.44 45.2787 37.5731 37.0637 33.7699 29.0922C33.5322 28.5472 33.2888 28.4255 32.6858 28.4255H22.2967C21.9373 28.4255 21.5721 28.7907 21.9373 29.2719L37.9383 61.158L21.3923 92.6847C21.0851 93.0499 21.1488 93.5311 21.7518 93.5311H31.706C32.193 93.5311 32.4945 93.3456 32.796 92.8644C36.6571 84.8929 40.6458 76.3764 44.2692 68.2831H44.3909C47.4167 74.6945 50.3744 80.7687 53.2907 86.758C54.2746 88.7786 55.2538 90.7896 56.2294 92.8006C56.5308 93.4035 56.8323 93.5833 57.499 93.5833H68.0098C68.4968 93.5833 68.6765 93.0963 68.3751 92.6151ZM95.5536 44.9077C80.7005 44.9077 71.3376 55.8997 71.3376 69.9702C71.3318 86.4002 80.6947 94.4877 93.8028 94.4355C98.8756 94.4355 104.192 93.3514 109.265 90.9338C109.624 90.7483 109.746 90.6324 109.746 90.2671C109.444 88.0293 109.444 85.977 109.444 84.3479V28.9067C109.444 28.6052 109.323 28.4255 108.841 28.4255H99.2988C98.9973 28.4255 98.6959 28.6632 98.6959 29.0284V45.0294C97.4842 44.9077 96.8233 44.9077 95.5536 44.9077Z" fill="#CD9E6F"/>
</svg>
