<?xml version="1.0" encoding="UTF-8"?>
<svg width="512px" height="512px" viewBox="0 0 512 512" version="1.1" xmlns="http://www.w3.org/2000/svg" xmlns:xlink="http://www.w3.org/1999/xlink">
    <!-- Generator: Sketch 52.6 (67491) - http://www.bohemiancoding.com/sketch -->
    <title>play/ic_launcher_APP</title>
    <desc>Created with Sketch.</desc>
    <g id="play/ic_launcher_APP" stroke="none" stroke-width="1" fill="none" fill-rule="evenodd">
        <rect fill="#FFFFFF" x="0" y="0" width="512" height="512"></rect>
        <path d="M338,353.119645 L264.569555,353.119645 C245.255092,330.771772 225.202818,308.177774 204.412156,285.337002 C198.471355,278.699649 188.075937,268.696758 173.225903,255.32833 C171.860026,254.410636 170.502882,253.460181 169.154472,252.476965 C160.482341,246.153537 152.894341,238.746203 146.390244,230.254743 C139.886146,221.763282 134.646813,212.368615 130.672087,202.070461 C126.69736,191.772306 124.710027,180.841973 124.710027,169.279133 C124.710027,149.76684 128.233027,132.96484 135.279133,118.872629 C142.325238,104.780417 151.810238,93.037084 163.734417,83.6422764 C175.658596,74.2474688 189.479596,67.2918022 205.197832,62.7750678 C220.916068,58.2583333 237.447068,56 254.791328,56 C271.051572,56 284.962905,57.355 296.525745,60.0650407 C308.088585,62.7750813 317.573585,65.7560813 324.98103,69.0081301 C332.388474,72.2601789 337.989141,75.2411789 341.783198,77.9512195 C345.577255,80.6612602 347.654921,82.0162602 348.01626,82.0162602 C348.738938,82.0162602 356.146345,108.935863 370.238482,162.775068 L364.276423,162.775068 C359.940358,150.850889 354.339691,139.017222 347.474255,127.273713 C340.608818,115.530203 332.659485,105.051537 323.626016,95.8373984 C314.592547,86.6232602 304.294547,79.1255935 292.731707,73.3441734 C281.168867,67.5627534 268.341534,64.6720867 254.249322,64.6720867 C243.047821,64.6720867 232.478821,66.2980867 222.542005,69.5501355 C212.60519,72.8021843 203.93319,77.6801843 196.525745,84.1842818 C189.118301,90.6883794 183.336967,98.7280461 179.181572,108.303523 C175.026176,117.879 172.948509,128.809333 172.948509,141.094851 C172.948509,144.238446 173.299006,148.761326 174,154.66349 L174,254.836019 C179.828763,251.13443 184.888767,246.408739 194.899861,237.696037 C205.354868,228.596997 216.323891,218.38219 227.80726,207.051309 C239.290628,195.720428 250.688129,184.046363 262.000103,172.028762 C272.318343,161.066884 281.353033,151.39071 289.104396,143 L303.825771,143 C298.709092,147.787956 293.508256,152.828848 288.223186,158.122751 C280.68187,165.676671 273.226362,173.230478 265.856439,180.784399 C258.486516,188.338319 251.288095,195.63461 244.260959,202.673491 C237.233823,209.712371 230.806661,216.321952 224.97928,222.502433 C227.721577,225.936033 234.063044,233.404001 244.00387,244.906562 C253.944696,256.409123 265.770674,269.885801 279.482159,285.337002 C293.193643,300.788203 307.847572,317.269237 323.444386,334.780598 C328.355758,340.294853 333.207625,345.740989 338,351.119021 L338,253.72426 C350.819955,261.287409 361.475734,270.447041 369.96748,281.203252 C383.517683,298.366843 390.292683,319.775843 390.292683,345.430894 C390.292683,362.775154 386.769683,378.312488 379.723577,392.04336 C372.677472,405.774233 362.921472,417.517566 350.455285,427.273713 C337.989098,437.029859 323.084098,444.256526 305.739837,448.95393 C288.395577,453.651333 269.425577,456 248.829268,456 C231.123669,456 215.947669,454.916 203.300813,452.747967 C190.653957,450.579935 180.17529,447.960268 171.864499,444.888889 C163.553707,441.817509 157.320707,439.017176 153.165312,436.487805 C149.009916,433.958434 146.390249,432.693767 145.306233,432.693767 C144.583556,432.693767 136.814811,403.064137 122,343.804878 L127.420054,343.804878 C130.672103,353.561024 134.827436,363.046024 139.886179,372.260163 C144.944921,381.474301 150.455255,390.146301 156.417344,398.276423 C162.379434,406.406545 168.702767,413.542878 175.387534,419.685637 C182.072301,425.828396 188.485967,430.525729 194.628726,433.777778 C200.771485,437.029827 208.901485,440.281827 219.01897,443.533875 C229.136455,446.785924 238.892455,448.411924 248.287263,448.411924 C275.026331,448.411924 296.706331,441.094924 313.327913,426.460705 C329.949496,411.826485 338.260163,392.043485 338.260163,367.111111 C338.260163,364.310494 338.135573,361.606793 337.886392,359 L338,359 L338,353.119645 Z" id="Path" fill="#000000"></path>
    </g>
</svg>